<svg xmlns="http://www.w3.org/2000/svg" version="1.2" viewBox="0 0 180.746 18.97" height="25.293" width="240.995"><defs><clipPath id="a"><path d="M94 0h18v18.969H94zm0 0"/></clipPath><clipPath id="b"><path d="M167 6h13.746v12H167zm0 0"/></clipPath><clipPath id="c"><path d="M21 6h11v12.969H21zm0 0"/></clipPath><clipPath id="d"><path d="M32 6h15v12.969H32zm0 0"/></clipPath><clipPath id="e"><path d="M47 0h17v18.969H47zm0 0"/></clipPath><clipPath id="f"><path d="M0 1h21v17.969H0zm0 0"/></clipPath><clipPath id="g"><path d="M71 1h16v17.969H71zm0 0"/></clipPath></defs><g clip-path="url(#a)"><path d="M111.348 6.156c-.746-1.367-1.243-3.48-2.86-4.601-.808-.684-1.93-1.121-3.047-.746-.933.308-1.68.996-2.113 1.867.121 2.797 2.984 2.922 4.91 3.914 1.367.746 2.735 1.496 3.36 2.984.37 1.617.062 3.36-.809 4.606-3.547 4.289-9.828 4.601-14.926 3.23l-1.738.746c.121-2.61.367-5.097.867-7.46.438 2.984 1.805 6.406 5.102 7.152 1.676-.125 3.668-.559 4.351-2.364.375-3.48-3.98-3.48-6.093-4.976-1.305-.746-2.551-2.051-2.239-3.793.125-2.176 1.43-3.918 3.235-5.035 2.859-1.867 7.023-1.184 10.445-.746.746-.063 1.492-.188 1.926-.934.312 1.93-.434 4.043-.371 6.156" fill="#2d4438"/></g><path d="M151.582.809c.684.683.992 1.867.434 2.671-.871 1.555-2.86 1.93-4.477 1.68-.684-.37-1.492-.746-1.742-1.555-.309-1.304.5-2.421 1.555-2.921 1.246-.872 3.046-.622 4.23.125m-30.285 5.347c.996.559 2.363.063 3.422.434-.871.5-2.239.187-3.422.312-1.121 2.739-1.18 5.907-1.926 8.832 0 .621.434 1.055.992 1.305 1.555.371 2.239-.684 3.047-1.742.188-.309.188-.684.438-.934.246.75-.438 1.371-.996 2.114-1.926 1.433-4.852 1.742-7.153.933-1.054-.25-1.613-1.117-1.863-2.113.434-2.797 1.305-5.473 1.742-8.27l-1.992-.312c3.48-.184 7.09-2.426 8.582-5.781zm0 0" fill="#2d4438"/><g clip-path="url(#b)"><path d="M180.746 7.836c-.125.496-.312 1.121-.871 1.305-.871.062-1.742 0-2.238-.871-.125-.622.37-1.805-.684-1.805-.808-.059-1.617-.059-2.117.562-.496.309-.309.996-.121 1.368 1.738 2.05 5.222.996 5.594 4.23.187 1.555-.809 2.86-2.114 3.543-2.734 1.371-7.273 2.05-9.824.125a1.13 1.13 0 01-.437-1.555c.625-.87 1.992-1.183 2.925-.558 1.43.683-.375 2.297.993 2.86 1.246 0 2.55.062 3.109-1.185-.309-3.543-6.902-1.8-5.656-6.464.808-2.301 3.23-2.926 5.222-3.36 2.364 0 5.16-.308 6.22 1.805" fill="#2d4438"/></g><path d="M149.469 15.176c.183.496.992.496 1.43.308l1.43-1.742c-.376 1.434-1.618 2.676-2.86 3.418-1.309.563-2.801.75-4.043.13-3.36-2.056-.313-5.786-.438-8.708-.496-.934-1.43-.684-2.113-1.121 3.11-.063 5.531-.434 8.27-1.305-.31 2.922-1.555 6.032-1.676 9.02m11.254-6.344c1.43-1.309 3.109-3.172 5.222-2.367 1.243.562 1.555 1.93 1.305 3.113-.309.871-1.242 1.8-2.113 2.113-1.242.371-2.672 0-3.11-1.304-.37-.688.746-1.867-.433-1.805-2.176 2.3-1.992 5.66-2.551 8.707l-5.223.121c.125-3.043 1.493-5.906 1.555-9.14-.375-.747-1.121-.56-1.68-.81 2.364-.433 4.977-.245 7.028-1.304zm-27.176-1.93c-1.738.746-1.863 2.922-2.488 4.477.062 1.805-2.114 4.601.25 5.473 2.55-1.801 2.738-5.348 3.109-8.457.125-.684-.125-1.555-.871-1.493m1.43.375c.87-1.496 3.546-.687 5.226-.687.121 2.8-1.371 5.535-1.433 8.586.25.62.996.433 1.433.308l1.367-1.992c-.558 1.93-2.113 3.797-4.168 4.23-1.18.126-2.113-.124-2.984-.683-.684-.434-.621-1.059-.996-1.555-.809 1.305-2.3 2.239-3.918 2.239-1.738-.125-3.606-.746-4.227-2.547-.746-1.93 0-4.106.996-5.602 1.989-2.61 5.782-4.539 8.704-2.297M30.656 1.555c.871.558.621 1.988.313 2.797-.809.996-2.051 1.554-3.422 1.554-1.117 0-2.238-.433-2.672-1.554-.313-1.618.746-2.985 2.113-3.418 1.242-.188 2.735-.25 3.668.62" fill="#2d4438"/><g clip-path="url(#c)"><path d="M28.418 15.855c.312.5.996.313 1.434.188l1.367-1.555c-.809 1.992-2.801 3.793-5.227 3.793-1.367-.062-2.238-.683-3.047-1.676-.804-2.8 1.367-4.914.809-7.59-.309-.683-1.18-.745-1.805-.867 2.738 0 5.54-.437 8.024-1.246-.121 2.86-1.493 5.97-1.555 8.953" fill="#2d4438"/></g><g clip-path="url(#d)"><path d="M39.672 9.578c.933-1.121 2.305-2.242 3.793-2.55 1.12.062 2.43.25 2.676 1.554.312 1.242-.309 3.047-1.805 3.668-.992.188-2.234.25-2.98-.438-1.06-.683.433-2.359-.813-2.546-2.3 2.363-1.863 5.78-2.672 8.703-1.805-.184-3.234.437-5.098 0 0-2.98 1.676-6.278 1.243-9.387l-1.243-.437c1.926-.31 4.786-.434 6.899-1.243zm0 0" fill="#2d4438"/></g><g clip-path="url(#e)"><path d="M55.594 7.277c-1.989 1.493-1.867 4.04-2.801 6.094-.246 1.18-.867 2.672 0 3.793.687.434 1.246-.187 1.805-.559 1.554-2.55 1.617-5.66 2.113-8.582-.246-.437-.559-.808-1.117-.746m8.27-6.906a200.106 200.106 0 00-2.923 15.484c.313.438 1.18.438 1.555 0l1.242-1.675c-.93 1.863-2.3 3.789-4.476 3.98-1.242.059-2.364-.066-3.11-.996l-.558-1.309c-.746.625-1.43 1.805-2.551 2.114-1.43.437-2.86 0-4.102-.68-1.558-1.184-1.867-2.863-1.68-4.789.434-1.805 1.739-3.484 3.419-4.477 1.367-.808 3.297-1.433 5.039-1.12l1.554 1.12c-.187-2.054 2.239-4.418.125-5.91l-.996-.312c2.051-.246 5.16-.559 7.461-1.43" fill="#2d4438"/></g><g clip-path="url(#f)"><path d="M10.262 9.266c-.934 2.363-1.246 5.039-1.68 7.586.125.746.934.996 1.68.87 1.988-1.492 1.925-4.35 2.363-6.777.559-1.742-1.309-1.617-2.363-1.68m2.113-7.46c-1.555 1.8-1.617 4.414-2.113 6.777h1.804c2.114-1.246 1.864-3.98 2.114-6.219-.25-.996-1.059-.496-1.805-.558m6.156-.438c.871.375 1.867.871 2.301 1.68.25 1.058.25 1.988-.187 2.984-.997 2.489-3.977 2.114-6.032 3.11 1.93.25 3.856.933 4.914 2.675.434 1.305 0 2.61-.683 3.668C13.992 19.898 6.84 17.598.559 17.973H0l1.242-1.246C2.613 12 3.672 6.965 4.168 2.113l-1.371-.746a224.813 224.813 0 0115.734 0" fill="#2d4438"/></g><g clip-path="url(#g)"><path d="M75.89 10.508c2.551-.063 6.157.25 8.145-.246-2.61-.563-5.594-.25-8.144.246m10.757.316c-.84-.023-1.597-.02-2.316.246-2.738 1-4.773 3.844-7.387 5.227l-3.48 2.672a40.405 40.405 0 011.5-2.344l.894-.191-.062-.118-.531-.09c.078-.113.125-.175.125-.175.132-.211.37-.555.78-1.172l.93-.234-.062-.118-.555-.09c.348-.546.63-.972.852-1.503l.973-.235-.067-.113-.726-.121c.222-.664.18-1.164-.446-1.207-1.804-.063-4.043.125-5.472-.188 1.93-.664 4.379-1.476 6.218-1.675.133-.2-.058-.508-.48-1.239l.777-.195-.062-.117-.992-.164c-.301-.508-.586-.992-.965-1.586l.734-.157-.058-.117-.973-.16c-.34-.527-.594-.933-.91-1.433l.816-.192-.062-.117-1.07-.18c-.56-.879-1-1.61-1.106-1.93 3.644 2.344 6.887 5.29 10.465 7.52.882.547 1.972.422 2.718 1.496" fill="#903246"/></g></svg>