<?xml version="1.0" encoding="UTF-8" standalone="no"?>
<!-- Created with Inkscape (http://www.inkscape.org/) -->

<svg
   xmlns:dc="http://purl.org/dc/elements/1.1/"
   xmlns:cc="http://creativecommons.org/ns#"
   xmlns:rdf="http://www.w3.org/1999/02/22-rdf-syntax-ns#"
   xmlns:svg="http://www.w3.org/2000/svg"
   xmlns="http://www.w3.org/2000/svg"
   xmlns:sodipodi="http://sodipodi.sourceforge.net/DTD/sodipodi-0.dtd"
   xmlns:inkscape="http://www.inkscape.org/namespaces/inkscape"
   id="svg3336"
   version="1.1"
   inkscape:version="0.91 r13725"
   xml:space="preserve"
   width="400"
   height="250"
   viewBox="0 0 400 250"
   sodipodi:docname="KENT_Logo.svg"><metadata
     id="metadata3342"><rdf:RDF><cc:Work
         rdf:about=""><dc:format>image/svg+xml</dc:format><dc:type
           rdf:resource="http://purl.org/dc/dcmitype/StillImage" /><dc:title></dc:title></cc:Work></rdf:RDF></metadata><defs
     id="defs3340"><clipPath
       clipPathUnits="userSpaceOnUse"
       id="clipPath3372"><path
         d="M 0,0 612,0 612,792 0,792 0,0 Z"
         id="path3374"
         inkscape:connector-curvature="0" /></clipPath><clipPath
       clipPathUnits="userSpaceOnUse"
       id="clipPath3486"><path
         d="M 0,0 612,0 612,792 0,792 0,0 Z"
         id="path3488"
         inkscape:connector-curvature="0" /></clipPath></defs><sodipodi:namedview
     pagecolor="#ffffff"
     bordercolor="#666666"
     borderopacity="1"
     objecttolerance="10"
     gridtolerance="10"
     guidetolerance="10"
     inkscape:pageopacity="0"
     inkscape:pageshadow="2"
     inkscape:window-width="1366"
     inkscape:window-height="706"
     id="namedview3338"
     showgrid="false"
     inkscape:snap-bbox="false"
     inkscape:snap-page="false"
     inkscape:bbox-nodes="false"
     inkscape:zoom="2.1560025"
     inkscape:cx="200"
     inkscape:cy="124.99986"
     inkscape:window-x="-8"
     inkscape:window-y="-8"
     inkscape:window-maximized="1"
     inkscape:current-layer="g3344" /><g
     id="g3344"
     inkscape:groupmode="layer"
     inkscape:label="KENT_EmployeeApplication_2013_eng"
     transform="matrix(1.25,0,0,-1.25,0,250)"><path
       d="M 320,0 0,0 l 0,199.99977 320,0 L 320,0 Z"
       style="fill:#019b77;fill-opacity:1;fill-rule:nonzero;stroke:none"
       id="path3346"
       inkscape:connector-curvature="0" /><path
       inkscape:connector-curvature="0"
       id="path3350"
       style="fill:#fddc03;fill-opacity:1;fill-rule:nonzero;stroke:none"
       d="m 301.88813,135.9764 0,-14.60861 -142.77768,38.68242 -141.13808,-38.54913 0,13.33782 141.13808,40.71459 142.77768,-39.57709 z" /><path
       inkscape:connector-curvature="0"
       id="path3354"
       style="fill:#fddc03;fill-opacity:1;fill-rule:nonzero;stroke:none"
       d="m 35.90987,24.48006 -17.91887,0.0365 0,93.26068 17.91887,0 0,-38.27709 32.73016,38.27709 23.16819,0 -34.99969,-38.53818 34.59435,-54.7225 -20.61565,0 -26.51497,40.43889 -8.36239,-9.44329 0,-31.03212 z" /><path
       inkscape:connector-curvature="0"
       id="path3358"
       style="fill:#fddc03;fill-opacity:1;fill-rule:nonzero;stroke:none"
       d="m 156.5391,101.26922 -45.50926,0 0,-19.62787 41.80827,0 0,-16.5075 -41.80827,0 0,-24.17788 47.53413,0 0,-16.5075 -65.08784,0.0347 0,93.29537 63.06297,0 0,-16.50932 z" /><path
       inkscape:connector-curvature="0"
       id="path3362"
       style="fill:#fddc03;fill-opacity:1;fill-rule:nonzero;stroke:none"
       d="m 213.78383,117.77762 16.71747,0 0,-93.31363 -17.91523,0 -34.9942,66.54122 -0.23919,0 0,-66.54122 -16.71747,0 0,93.31363 18.86832,0 34.03564,-64.98194 0.24466,0 0,64.98194 z" /><path
       inkscape:connector-curvature="0"
       id="path3366"
       style="fill:#fddc03;fill-opacity:1;fill-rule:nonzero;stroke:none"
       d="m 276.0553,24.46491 -17.84949,0 0,76.80613 -25.82663,0 0,16.5075 69.49727,0 0,-16.5075 -25.82115,0 0,-76.80613 z" /></g></svg>